<svg xmlns="http://www.w3.org/2000/svg" viewBox="0 0 256 256">
  <rect width="256" height="256" fill="#1a5f3f"/>
  <path d="M80 60 Q80 40 100 40 L156 40 Q176 40 176 60 L176 80 L80 80 Z" fill="#2d8659"/>
  <circle cx="128" cy="40" r="8" fill="#2d8659"/>
  <path d="M90 80 L90 140 Q90 160 110 160 L110 200 L100 200 L100 220 L156 220 L156 200 L146 200 L146 160 Q166 160 166 140 L166 80 Z" fill="#50c878"/>
  <path d="M100 100 Q80 100 70 120 Q60 140 75 155 Q90 170 110 160 L110 140 Q100 145 95 135 Q90 125 100 120 Z" fill="#2d8659"/>
  <path d="M146 100 L146 130 Q146 150 166 150 Q186 150 186 130 L186 100 Q186 90 176 90 L156 90 Q146 90 146 100 Z" fill="#50c878"/>
  <ellipse cx="82" cy="130" rx="18" ry="25" fill="#1a5f3f" opacity="0.3"/>
</svg>